<?xml version="1.0" encoding="UTF-8"?>
<svg xmlns="http://www.w3.org/2000/svg" width="1200" height="900" viewBox="0 0 1200 900" fill="none">
  <defs>
    <linearGradient id="bg" x1="0" y1="0" x2="0" y2="1">
      <stop offset="0%" stop-color="#CBD5E1"/>
      <stop offset="100%" stop-color="#94A3B8"/>
    </linearGradient>
    <filter id="blur">
      <feGaussianBlur stdDeviation="18"/>
    </filter>
  </defs>
  <rect width="1200" height="900" fill="url(#bg)"/>
  <g filter="url(#blur)" opacity="0.55">
    <rect x="80" y="60" width="220" height="320" fill="#64748B" rx="8"/>
    <rect x="360" y="100" width="180" height="280" fill="#475569" rx="8"/>
    <rect x="620" y="40" width="260" height="360" fill="#64748B" rx="8"/>
    <rect x="920" y="120" width="200" height="240" fill="#475569" rx="8"/>
    <circle cx="200" cy="520" r="70" fill="#059669"/>
    <circle cx="980" cy="500" r="85" fill="#10B981"/>
  </g>
  <rect x="0" y="520" width="1200" height="380" fill="#94A3B8"/>
  <rect x="0" y="560" width="1200" height="340" fill="#CBD5E1"/>
  <rect x="120" y="580" width="960" height="140" fill="#FBBF24" rx="4"/>
  <g fill="#F59E0B">
    <rect x="150" y="610" width="28" height="80" rx="3"/>
    <rect x="210" y="610" width="28" height="80" rx="3"/>
    <rect x="270" y="610" width="28" height="80" rx="3"/>
    <rect x="330" y="610" width="28" height="80" rx="3"/>
    <rect x="390" y="610" width="28" height="80" rx="3"/>
    <rect x="450" y="610" width="28" height="80" rx="3"/>
    <rect x="510" y="610" width="28" height="80" rx="3"/>
    <rect x="570" y="610" width="28" height="80" rx="3"/>
    <rect x="630" y="610" width="28" height="80" rx="3"/>
    <rect x="690" y="610" width="28" height="80" rx="3"/>
    <rect x="750" y="610" width="28" height="80" rx="3"/>
    <rect x="810" y="610" width="28" height="80" rx="3"/>
    <rect x="870" y="610" width="28" height="80" rx="3"/>
    <rect x="930" y="610" width="28" height="80" rx="3"/>
    <rect x="990" y="610" width="28" height="80" rx="3"/>
  </g>
  <rect x="480" y="480" width="240" height="48" fill="#059669" rx="24"/>
  <text x="600" y="512" text-anchor="middle" fill="white" font-family="system-ui,sans-serif" font-size="20" font-weight="700">CLEAR PATH</text>
</svg>
